<svg width="512" height="512" viewBox="0 0 24 24" xmlns="http://www.w3.org/2000/svg"><defs><linearGradient id="a" x1="0" x2="13.851" y2="23.991" gradientUnits="userSpaceOnUse"><stop stop-color="#383838" offset="0"/><stop stop-color="#292929" offset="1"/></linearGradient></defs><rect width="24" height="24" ry="0" fill="url(#a)"/><g fill="#fbc02d"><path d="M18.229 17.469a1.964 1.964 0 01-1.833-1.255l-.846-1.91c-.038-.092-.105-.14-.18-.14H8.63a.185.185 0 00-.172.122l-.863 1.948a1.958 1.958 0 01-1.825 1.235c-.594 0-1.15-.266-1.526-.73a1.997 1.997 0 01-.403-1.679l1.362-6.443A2.63 2.63 0 017.755 6.53h8.49c1.223 0 2.295.877 2.551 2.086l1.363 6.443a1.997 1.997 0 01-.403 1.678 1.96 1.96 0 01-1.527.73zm-10.717-3.58c-4.786-9.037-2.393-4.518 0 0z"/><g fill="#303030"><path d="M10.12 10.804H7.727a.513.513 0 010-1.026h2.393a.513.513 0 010 1.026zM8.923 12a.513.513 0 01-.512-.513V9.095a.513.513 0 011.025 0v2.392c0 .283-.23.513-.513.513zM15.076 12a1.71 1.71 0 010-3.418c.942 0 1.709.767 1.709 1.709S16.018 12 15.075 12zm0-2.393a.685.685 0 000 1.367.685.685 0 000-1.367z"/></g></g></svg>
